<svg version="1.1" id="Layer_1" xmlns="http://www.w3.org/2000/svg" xmlns:xlink="http://www.w3.org/1999/xlink" x="0px" y="0px"
	 width="100%" viewBox="0 0 251 223" enable-background="new 0 0 251 223" xml:space="preserve">
<path fill="#000000" opacity="1.000000" stroke="none" 
	d="
M153.000000,224.000000 
	C102.000000,224.000000 51.500008,224.000000 1.000007,224.000000 
	C1.000005,149.666672 1.000005,75.333351 1.000002,1.000017 
	C84.666656,1.000011 168.333313,1.000011 251.999969,1.000006 
	C251.999985,75.333321 251.999985,149.666641 252.000000,223.999969 
	C219.166672,224.000000 186.333328,224.000000 153.000000,224.000000 
M81.991730,153.013062 
	C81.991730,153.013062 82.098206,153.009735 81.778931,152.446320 
	C80.286514,151.365555 78.794106,150.284775 76.593758,148.964554 
	C74.964104,147.901443 73.234802,146.963226 71.720863,145.755112 
	C61.302628,137.441452 54.402237,126.365120 50.472042,114.064545 
	C47.196503,103.812889 47.363720,92.502533 50.354439,82.087151 
	C54.577545,67.379898 61.983219,54.256199 74.933716,45.136215 
	C82.603691,39.734882 82.658440,39.812630 90.021461,46.706917 
	C91.351273,51.622650 93.491547,56.482796 93.833336,61.466290 
	C94.446129,70.401222 93.735039,79.418823 94.049049,88.385353 
	C94.245384,93.991951 95.305122,99.568329 96.037010,105.851311 
	C96.758621,106.173050 97.480232,106.494789 98.865250,106.926895 
	C100.945114,104.969505 103.024971,103.012115 105.019554,101.036407 
	C105.019554,101.036407 105.001289,101.121696 105.541054,100.942032 
	C105.733498,100.627350 105.925941,100.312668 106.013008,100.012032 
	C106.013008,100.012032 106.027084,100.117409 106.740982,100.022232 
	C108.991318,98.329491 111.241646,96.636749 113.516083,94.994797 
	C113.516083,94.994797 113.535820,94.942162 114.282120,94.914680 
	C114.875793,93.964546 115.469467,93.014412 116.478157,92.031303 
	C116.478157,92.031303 116.866585,91.881462 117.547844,91.848839 
	C118.130424,90.972511 118.712997,90.096184 119.112473,89.095772 
	C119.112473,89.095772 119.276573,89.244095 120.057991,89.216011 
	C120.706100,87.319290 122.152565,85.290031 121.863495,83.548904 
	C120.640800,76.184319 118.592644,68.953476 117.447220,61.580383 
	C116.492874,55.437263 113.596581,49.051090 118.580635,42.872387 
	C118.749962,42.591263 118.919281,42.310135 119.027657,42.021301 
	C119.027657,42.021301 119.047668,42.079380 119.691185,41.781849 
	C122.008080,37.134289 125.500610,36.200443 130.024063,38.505318 
	C135.002319,41.041939 139.982880,43.574032 145.210938,46.723297 
	C147.183289,48.733818 149.073669,50.833252 151.141800,52.739891 
	C161.562073,62.346519 167.059219,74.432968 169.139801,89.135094 
	C168.926102,94.757095 169.574036,100.582336 168.306580,105.955780 
	C166.142609,115.129951 162.777145,124.020721 160.022812,133.014114 
	C160.022812,133.014114 160.006424,132.907669 159.461807,133.221954 
	C158.977661,134.112442 158.493515,135.002914 157.357437,136.137314 
	C154.836945,138.947449 152.754013,142.419495 149.707291,144.433594 
	C142.802002,148.998474 138.921646,154.311676 141.983856,163.613739 
	C143.480255,164.379410 145.933701,166.125031 146.316833,165.750839 
	C148.702713,163.420715 153.597153,163.110611 153.576843,157.870010 
	C155.082504,156.855255 156.588181,155.840500 158.578323,154.774704 
	C158.861343,154.572998 159.022522,154.299484 158.927185,154.017410 
	C158.927185,154.017410 158.990387,154.152100 159.750214,154.054779 
	C163.289551,154.851395 164.722153,156.821899 163.735291,160.528473 
	C163.002365,163.281265 162.654129,166.136490 162.190125,169.644669 
	C166.492310,173.636749 170.753632,177.674652 175.133301,181.579849 
	C175.949402,182.307571 177.240799,182.502258 178.790100,183.369324 
	C181.574493,186.173401 184.358887,188.977493 187.041382,192.494751 
	C192.957397,198.012604 198.873413,203.530457 205.049652,209.588654 
	C205.645294,210.092636 206.240936,210.596603 206.832901,211.165756 
	C206.832901,211.165756 206.898071,211.161896 207.240463,211.826569 
	C209.044525,212.148727 211.506775,213.369186 212.527008,212.621597 
	C215.383926,210.528305 217.645111,207.621994 220.778671,204.798538 
	C223.095383,202.116135 225.701279,199.625381 227.643509,196.694794 
	C229.412460,194.025696 230.461090,190.879242 231.717941,187.266296 
	C231.126175,186.329086 230.534424,185.391876 229.979065,184.196274 
	C229.879257,183.999863 229.731339,183.951965 229.044739,183.521927 
	C227.740677,181.970688 226.436615,180.419449 224.862030,178.259674 
	C223.317673,177.162262 221.773300,176.064850 220.231461,174.797134 
	C220.231461,174.797134 220.061142,174.794266 219.798370,174.197067 
	C216.558884,171.429337 213.319397,168.661606 210.053696,165.956161 
	C210.053696,165.956161 210.116928,165.932312 209.797043,165.373322 
	C209.185440,165.192200 208.573822,165.011078 208.002045,164.946091 
	C208.002045,164.946091 208.118164,164.906219 207.872940,164.281052 
	C200.360016,157.398331 192.742889,150.624344 185.388016,143.576691 
	C182.641220,140.944611 180.397949,141.347870 177.900574,143.473221 
	C176.530380,144.639297 175.254837,145.916595 173.241074,146.949280 
	C170.142365,144.956451 169.471802,142.670166 171.827408,139.478729 
	C173.218216,137.594467 173.999954,135.260651 175.683960,132.777786 
	C176.486740,130.853012 177.289520,128.928253 178.023788,127.019600 
	C178.023788,127.019600 178.040695,127.087921 178.710938,126.741470 
	C179.478683,123.885033 180.246414,121.028587 181.816803,118.009018 
	C182.832382,113.945717 183.847946,109.882416 185.006363,104.945953 
	C185.012283,98.466377 185.512589,91.935982 184.853516,85.524773 
	C184.400146,81.114616 185.008041,75.815071 180.014771,72.142792 
	C179.689621,71.063057 179.364014,69.983452 179.039413,68.903549 
	C177.086197,62.405293 174.568405,56.237949 168.753845,51.233875 
	C165.178574,47.462524 161.603287,43.691170 157.792496,39.352310 
	C156.817688,38.307388 155.842865,37.262463 154.975220,35.494453 
	C149.326797,32.058052 143.678375,28.621655 137.260422,25.017067 
	C129.092239,22.101656 120.958580,18.758993 112.102509,19.104580 
	C104.913208,19.385124 97.669601,19.883389 90.600006,21.133171 
	C84.512634,22.209316 78.212814,23.593607 73.331291,29.178516 
	C72.225227,29.834940 71.119156,30.491364 69.287468,31.273649 
	C68.536560,31.520174 67.572884,31.549765 67.066902,32.046021 
	C60.327171,38.656216 53.488499,45.179958 47.059906,52.084122 
	C45.146183,54.139408 44.427849,57.307735 42.990082,60.708061 
	C40.313622,69.388687 37.029011,77.942665 35.185108,86.796677 
	C34.049770,92.248291 33.212910,98.293648 36.057953,104.716301 
	C36.102413,106.573288 36.146873,108.430267 36.131161,111.097946 
	C35.876854,124.472816 43.861202,134.546829 50.542191,144.797241 
	C58.342098,156.764359 70.200813,164.465836 83.028038,170.461395 
	C85.115807,171.437241 87.680008,171.393768 90.617752,171.871140 
	C91.025421,171.250534 91.433090,170.629913 91.957970,169.331589 
	C91.911301,168.876312 91.864632,168.421021 92.173065,167.370255 
	C93.162025,167.575119 94.150986,167.779999 95.012772,168.819382 
	C95.002701,175.260193 100.844429,182.467819 108.580070,185.158020 
	C110.025124,186.455093 111.470177,187.752167 113.222000,189.670029 
	C119.097038,195.846664 121.578796,195.515793 125.006668,187.998413 
	C125.006668,187.998413 125.099106,188.089005 125.716270,187.814957 
	C127.087730,185.576996 128.459183,183.339050 130.206909,180.513306 
	C131.798889,178.741318 133.390854,176.969330 135.756546,175.043793 
	C140.682312,173.271332 139.312393,168.967621 138.794922,165.781311 
	C137.011749,154.801178 134.606644,143.923355 132.544525,132.986572 
	C131.742218,128.731461 129.682098,127.716980 126.353432,130.250580 
	C123.429100,132.476425 120.463898,134.660934 117.670113,137.043549 
	C110.385063,143.256454 103.184128,149.567978 95.297241,156.164246 
	C94.215157,156.714874 93.133064,157.265488 91.772987,157.196274 
	C89.873123,156.091888 87.973251,154.987488 86.030495,153.910019 
	C86.030495,153.910019 86.049721,153.862778 85.657822,153.240295 
	C84.434669,153.129059 83.211510,153.017822 81.991730,153.013062 
z"/>
<path fill="#1E6D8E" opacity="1.000000" stroke="none" 
	d="
M36.191338,110.287254 
	C36.146873,108.430267 36.102413,106.573288 36.266865,103.942413 
	C36.708778,90.704506 38.085590,78.451622 42.966816,66.809074 
	C44.044285,64.239128 44.865437,61.561726 46.030647,58.669094 
	C52.470299,48.332520 60.313667,39.791298 70.437508,33.059814 
	C72.536819,31.957438 74.269913,30.843182 76.250687,29.661739 
	C76.831848,29.518747 77.165352,29.442940 77.809723,29.395271 
	C78.767784,28.982140 79.414986,28.540871 80.302155,27.880543 
	C81.522499,27.212910 82.502876,26.764334 83.885574,26.369305 
	C87.551506,25.334841 90.815102,24.246832 94.469406,23.053633 
	C99.178802,22.467964 103.497498,21.987488 108.076981,21.743664 
	C111.216812,22.048100 114.095856,22.115883 117.358215,22.186260 
	C118.750610,22.339357 119.759682,22.489861 120.954590,22.890686 
	C123.096611,23.400417 125.052795,23.659824 127.313141,23.998753 
	C128.017349,24.203331 128.417374,24.328390 129.020462,24.676886 
	C129.982986,25.064650 130.742477,25.228977 131.828613,25.490395 
	C133.423370,26.085402 134.691483,26.583324 136.164246,27.357206 
	C137.451477,27.794493 138.534042,27.955818 139.870773,28.228512 
	C140.408676,28.574940 140.692398,28.809996 141.089981,29.365179 
	C144.394516,31.507217 147.585220,33.329128 151.044525,35.320988 
	C151.979126,36.013771 152.645142,36.536610 153.302475,37.301422 
	C154.871872,38.335537 156.449951,39.127674 158.028015,39.919815 
	C161.603287,43.691170 165.178574,47.462524 168.801147,51.814835 
	C170.987717,56.773388 173.179779,61.126202 175.249344,65.536491 
	C176.878769,69.008842 178.357147,72.552078 180.085754,76.394653 
	C180.868011,80.148003 181.467087,83.570518 181.898651,87.197296 
	C181.965698,88.341301 182.200272,89.281059 182.522797,90.665817 
	C182.706558,95.723961 182.802353,100.337090 182.627411,105.108627 
	C182.184647,106.844406 182.012665,108.421783 181.798523,110.385864 
	C181.668549,111.809662 181.580750,112.846764 181.209290,114.064621 
	C179.963989,118.526237 179.002350,122.807076 178.040695,127.087921 
	C178.040695,127.087921 178.023788,127.019600 177.740082,127.098686 
	C176.656113,129.161514 175.855865,131.145264 175.055603,133.128998 
	C173.999954,135.260651 173.218216,137.594467 171.827408,139.478729 
	C169.471802,142.670166 170.142365,144.956451 173.836105,147.284851 
	C175.216721,147.533264 176.304901,147.748459 176.740967,147.312042 
	C181.001694,143.047928 184.316055,145.271729 187.751740,148.567627 
	C192.756943,153.369171 197.853088,158.084488 203.088638,162.631424 
	C204.419724,163.787430 206.423492,164.168869 208.118164,164.906219 
	C208.118164,164.906219 208.002045,164.946091 208.075806,165.267090 
	C208.805359,165.702820 209.461136,165.817566 210.116928,165.932312 
	C210.116928,165.932312 210.053696,165.956161 209.813751,166.224548 
	C212.490967,169.463715 215.386307,172.457001 218.375137,175.353867 
	C218.571686,175.544388 219.482544,174.997925 220.061142,174.794281 
	C220.061142,174.794266 220.231461,174.797134 219.782669,174.941650 
	C220.210892,176.398666 221.087891,177.711151 222.064117,179.323975 
	C223.101486,180.427017 224.039658,181.229721 225.231598,182.350433 
	C226.835373,183.129822 228.185364,183.591202 229.535339,184.052582 
	C229.731339,183.951965 229.879257,183.999863 229.631805,184.364532 
	C229.252243,184.751373 229.219940,184.969940 229.032166,185.569458 
	C228.247726,188.362549 228.131226,191.090317 226.881165,193.119934 
	C224.421127,197.114059 221.331619,200.720490 218.340683,204.551682 
	C218.178848,204.616058 217.902283,204.827789 217.596283,204.903091 
	C216.849854,205.647202 216.409409,206.316010 215.788757,207.287262 
	C212.705063,208.780426 209.801575,209.971161 206.898071,211.161896 
	C206.898071,211.161896 206.832901,211.165756 207.213684,210.894531 
	C207.440460,210.062988 207.286438,209.502655 207.032166,208.619904 
	C203.214981,204.850952 199.604996,201.278412 195.744431,198.001068 
	C193.055374,195.718231 190.022552,193.840347 187.143280,191.781586 
	C184.358887,188.977493 181.574493,186.173401 178.453171,182.822693 
	C173.452362,177.804108 168.788498,173.332123 164.084702,168.459961 
	C164.686523,165.772522 165.784149,163.495956 165.838165,161.194885 
	C165.889236,159.018005 165.334488,156.454468 164.089966,154.765686 
	C163.394043,153.821320 160.754272,154.309448 158.990387,154.152100 
	C158.990387,154.152100 158.927185,154.017410 158.857269,154.156235 
	C158.556168,154.471909 158.324982,154.648804 158.093842,154.825745 
	C156.588181,155.840500 155.082504,156.855255 152.958557,158.143936 
	C149.338928,160.800278 146.711060,164.048340 142.149536,162.814743 
	C138.921646,154.311676 142.802002,148.998474 149.707291,144.433594 
	C152.754013,142.419495 154.836945,138.947449 157.921631,135.828522 
	C158.992691,134.649048 159.499557,133.778351 160.006424,132.907669 
	C160.006424,132.907669 160.022812,133.014114 160.262024,132.857330 
	C168.828644,123.068604 170.536316,111.263535 171.065079,99.233032 
	C171.224625,95.603218 169.860703,91.906441 169.194626,88.240341 
	C167.059219,74.432968 161.562073,62.346519 151.141800,52.739891 
	C149.073669,50.833252 147.183289,48.733818 145.003998,46.079460 
	C139.608719,39.302631 132.439209,36.705231 124.972580,35.444138 
	C121.041687,34.780220 118.715607,37.781223 119.047668,42.079380 
	C119.047668,42.079380 119.027657,42.021301 118.736862,42.025375 
	C117.890610,42.339500 117.335159,42.649548 116.513336,43.174461 
	C112.717964,46.572598 112.864975,50.359509 113.674156,54.730743 
	C115.795113,66.188271 117.441223,77.733696 119.276573,89.244095 
	C119.276573,89.244095 119.112473,89.095772 118.883804,89.223877 
	C118.058952,90.195145 117.462769,91.038307 116.866585,91.881462 
	C116.866585,91.881462 116.478157,92.031303 115.964836,92.179642 
	C114.812950,93.199371 114.174385,94.070763 113.535820,94.942162 
	C113.535820,94.942162 113.516083,94.994797 113.105392,94.917465 
	C110.472160,96.599228 108.249619,98.358315 106.027084,100.117409 
	C106.027084,100.117409 106.013008,100.012032 105.791916,100.089607 
	C105.380981,100.485352 105.191132,100.803520 105.001282,101.121696 
	C105.001289,101.121696 105.019554,101.036407 104.701904,100.962708 
	C102.323456,102.864838 100.262650,104.840683 98.201843,106.816521 
	C97.480232,106.494789 96.758621,106.173050 96.172104,105.177818 
	C96.282196,101.846619 96.240730,99.188942 96.234924,96.531189 
	C96.204803,82.739571 96.224724,68.947662 96.135834,55.156445 
	C96.107422,50.747513 94.122002,47.506126 89.785965,45.986843 
	C82.658440,39.812630 82.603691,39.734882 74.933716,45.136215 
	C61.983219,54.256199 54.577545,67.379898 50.354439,82.087151 
	C47.363720,92.502533 47.196503,103.812889 50.472042,114.064545 
	C54.402237,126.365120 61.302628,137.441452 71.720863,145.755112 
	C73.234802,146.963226 74.964104,147.901443 77.045639,149.389038 
	C79.031090,150.878937 80.564644,151.944336 82.098206,153.009735 
	C82.098206,153.009735 81.991730,153.013062 82.063950,153.276749 
	C83.440689,153.647873 84.745209,153.755325 86.049721,153.862778 
	C86.049721,153.862778 86.030495,153.910019 85.887550,154.223312 
	C87.396194,156.399200 89.047775,158.261810 90.548637,160.500687 
	C90.412437,163.234344 90.426964,165.591705 90.176933,168.255981 
	C88.362259,168.484329 86.633942,168.829727 85.288567,168.264160 
	C62.227188,158.569443 46.348270,142.351425 39.616535,117.808670 
	C38.897095,115.185699 37.352921,112.788948 36.191338,110.287254 
z"/>
<path fill="#1D6C8D" opacity="1.000000" stroke="none" 
	d="
M134.982834,175.197342 
	C133.390854,176.969330 131.798889,178.741318 129.693573,180.898849 
	C127.819862,183.552597 126.459488,185.820801 125.099106,188.089005 
	C125.099106,188.089005 125.006668,187.998413 124.713928,187.852783 
	C123.034576,188.338547 121.647972,188.969955 119.822144,189.547485 
	C118.504692,189.560089 117.626472,189.626572 116.470612,189.486511 
	C115.488434,188.684326 114.783890,188.088684 113.941177,187.225464 
	C111.946747,185.587906 110.090485,184.217957 107.966682,182.640961 
	C105.266640,180.430191 102.710114,178.554382 100.454414,176.368195 
	C99.341698,175.289764 98.257156,173.702408 98.077843,172.233292 
	C97.595306,168.280121 97.379601,164.257950 97.532875,160.281464 
	C97.594627,158.679398 98.481346,156.616028 99.696518,155.630753 
	C108.213318,148.725250 116.913528,142.045914 125.556686,135.296280 
	C127.773041,133.565491 129.415665,134.248215 130.001068,136.771683 
	C132.932800,149.409470 137.556076,161.842880 134.982834,175.197342 
z"/>
<path fill="#94B9C8" opacity="1.000000" stroke="none" 
	d="
M135.369690,175.120575 
	C137.556076,161.842880 132.932800,149.409470 130.001068,136.771683 
	C129.415665,134.248215 127.773041,133.565491 125.556686,135.296280 
	C116.913528,142.045914 108.213318,148.725250 99.696518,155.630753 
	C98.481346,156.616028 97.594627,158.679398 97.532875,160.281464 
	C97.379601,164.257950 97.595306,168.280121 98.077843,172.233292 
	C98.257156,173.702408 99.341698,175.289764 100.454414,176.368195 
	C102.710114,178.554382 105.266640,180.430191 107.928711,182.975067 
	C108.107681,183.961197 108.057083,184.406235 108.006493,184.851257 
	C100.844429,182.467819 95.002701,175.260193 95.233643,168.027466 
	C95.619553,163.437103 95.784599,159.638626 95.949646,155.840164 
	C103.184128,149.567978 110.385063,143.256454 117.670113,137.043549 
	C120.463898,134.660934 123.429100,132.476425 126.353432,130.250580 
	C129.682098,127.716980 131.742218,128.731461 132.544525,132.986572 
	C134.606644,143.923355 137.011749,154.801178 138.794922,165.781311 
	C139.312393,168.967621 140.682312,173.271332 135.369690,175.120575 
z"/>
<path fill="#94B9C8" opacity="1.000000" stroke="none" 
	d="
M36.161247,110.692596 
	C37.352921,112.788948 38.897095,115.185699 39.616535,117.808670 
	C46.348270,142.351425 62.227188,158.569443 85.288567,168.264160 
	C86.633942,168.829727 88.362259,168.484329 90.406281,168.244049 
	C91.206474,167.930695 91.512390,167.944183 91.817955,167.965744 
	C91.864632,168.421021 91.911301,168.876312 91.663177,169.789154 
	C90.920250,170.771637 90.472130,171.296539 90.024002,171.821442 
	C87.680008,171.393768 85.115807,171.437241 83.028038,170.461395 
	C70.200813,164.465836 58.342098,156.764359 50.542191,144.797241 
	C43.861202,134.546829 35.876854,124.472816 36.161247,110.692596 
z"/>
<path fill="#8AB1C2" opacity="1.000000" stroke="none" 
	d="
M89.903717,46.346878 
	C94.122002,47.506126 96.107422,50.747513 96.135834,55.156445 
	C96.224724,68.947662 96.204803,82.739571 96.234924,96.531189 
	C96.240730,99.188942 96.282196,101.846619 96.142319,104.831299 
	C95.305122,99.568329 94.245384,93.991951 94.049049,88.385353 
	C93.735039,79.418823 94.446129,70.401222 93.833336,61.466290 
	C93.491547,56.482796 91.351273,51.622650 89.903717,46.346878 
z"/>
<path fill="#A4C4D1" opacity="1.000000" stroke="none" 
	d="
M120.768761,22.640362 
	C119.759682,22.489861 118.750610,22.339357 117.020813,21.958225 
	C113.472130,21.654066 110.644165,21.580538 107.816193,21.507010 
	C103.497498,21.987488 99.178802,22.467964 94.072197,23.003078 
	C90.017273,24.143730 86.750267,25.229744 83.483253,26.315758 
	C82.502876,26.764334 81.522499,27.212910 80.006607,27.900154 
	C78.813683,28.548258 78.156265,28.957693 77.498848,29.367130 
	C77.165352,29.442940 76.831848,29.518747 76.022125,29.503197 
	C75.015076,29.248789 74.484245,29.085739 73.953415,28.922688 
	C78.212814,23.593607 84.512634,22.209316 90.600006,21.133171 
	C97.669601,19.883389 104.913208,19.385124 112.102509,19.104580 
	C120.958580,18.758993 129.092239,22.101656 137.647903,25.392780 
	C138.028931,26.157253 138.022491,26.546009 137.672119,26.950699 
	C136.871994,27.004835 136.415787,27.043041 135.959579,27.081245 
	C134.691483,26.583324 133.423370,26.085402 131.623459,25.271437 
	C130.333572,24.788078 129.575485,24.620764 128.817413,24.453449 
	C128.417374,24.328390 128.017349,24.203331 127.046432,23.755390 
	C124.573296,23.168457 122.671028,22.904409 120.768761,22.640362 
z"/>
<path fill="#72A3B8" opacity="1.000000" stroke="none" 
	d="
M45.804619,58.933807 
	C44.865437,61.561726 44.044285,64.239128 42.966816,66.809074 
	C38.085590,78.451622 36.708778,90.704506 36.325974,103.480179 
	C33.212910,98.293648 34.049770,92.248291 35.185108,86.796677 
	C37.029011,77.942665 40.313622,69.388687 43.352104,60.268059 
	C44.410957,59.529972 45.107788,59.231888 45.804619,58.933807 
z"/>
<path fill="#4F8DA6" opacity="1.000000" stroke="none" 
	d="
M119.667282,89.230057 
	C117.441223,77.733696 115.795113,66.188271 113.674156,54.730743 
	C112.864975,50.359509 112.717964,46.572598 116.845627,43.192493 
	C117.664604,43.009903 117.884926,43.024147 118.105247,43.038391 
	C113.596581,49.051090 116.492874,55.437263 117.447220,61.580383 
	C118.592644,68.953476 120.640800,76.184319 121.863495,83.548904 
	C122.152565,85.290031 120.706100,87.319290 119.667282,89.230057 
z"/>
<path fill="#7EABBE" opacity="1.000000" stroke="none" 
	d="
M207.995544,164.593628 
	C206.423492,164.168869 204.419724,163.787430 203.088638,162.631424 
	C197.853088,158.084488 192.756943,153.369171 187.751740,148.567627 
	C184.316055,145.271729 181.001694,143.047928 176.740967,147.312042 
	C176.304901,147.748459 175.216721,147.533264 174.183868,147.382095 
	C175.254837,145.916595 176.530380,144.639297 177.900574,143.473221 
	C180.397949,141.347870 182.641220,140.944611 185.388016,143.576691 
	C192.742889,150.624344 200.360016,157.398331 207.995544,164.593628 
z"/>
<path fill="#81ACC1" opacity="1.000000" stroke="none" 
	d="
M169.167206,88.687714 
	C169.860703,91.906441 171.224625,95.603218 171.065079,99.233032 
	C170.536316,111.263535 168.828644,123.068604 160.208801,132.865540 
	C162.777145,124.020721 166.142609,115.129951 168.306580,105.955780 
	C169.574036,100.582336 168.926102,94.757095 169.167206,88.687714 
z"/>
<path fill="#A4C4D1" opacity="1.000000" stroke="none" 
	d="
M46.030643,58.669098 
	C45.107788,59.231888 44.410957,59.529972 43.437958,59.897064 
	C44.427849,57.307735 45.146183,54.139408 47.059906,52.084122 
	C53.488499,45.179958 60.327171,38.656216 67.066902,32.046021 
	C67.572884,31.549765 68.536560,31.520174 69.677399,31.526567 
	C70.068642,32.202301 70.069969,32.625118 70.071289,33.047932 
	C60.313667,39.791298 52.470299,48.332520 46.030643,58.669098 
z"/>
<path fill="#CADEE5" opacity="1.000000" stroke="none" 
	d="
M182.066162,86.993034 
	C181.467087,83.570518 180.868011,80.148003 180.112061,76.001831 
	C179.987534,74.493446 180.019867,73.708710 180.052200,72.923973 
	C185.008041,75.815071 184.400146,81.114616 184.853516,85.524773 
	C185.512589,91.935982 185.012283,98.466377 184.709808,105.402252 
	C184.111359,105.849014 183.812363,105.874084 183.395111,105.666901 
	C183.148712,105.250099 183.023438,105.100166 182.898163,104.950226 
	C182.802353,100.337090 182.706558,95.723961 182.671478,90.349556 
	C182.510208,88.723198 182.288193,87.858116 182.066162,86.993034 
z"/>
<path fill="#94B9C8" opacity="1.000000" stroke="none" 
	d="
M187.092331,192.138153 
	C190.022552,193.840347 193.055374,195.718231 195.744431,198.001068 
	C199.604996,201.278412 203.214981,204.850952 206.642029,208.647736 
	C205.831223,209.014755 205.310318,209.031525 204.789413,209.048309 
	C198.873413,203.530457 192.957397,198.012604 187.092331,192.138153 
z"/>
<path fill="#5F97AE" opacity="1.000000" stroke="none" 
	d="
M180.033478,72.533386 
	C180.019867,73.708710 179.987534,74.493446 179.928894,75.671005 
	C178.357147,72.552078 176.878769,69.008842 175.249344,65.536491 
	C173.179779,61.126202 170.987717,56.773388 168.943054,52.116013 
	C174.568405,56.237949 177.086197,62.405293 179.039413,68.903549 
	C179.364014,69.983452 179.689621,71.063057 180.033478,72.533386 
z"/>
<path fill="#5F97AE" opacity="1.000000" stroke="none" 
	d="
M119.369431,41.930614 
	C118.715607,37.781223 121.041687,34.780220 124.972580,35.444138 
	C132.439209,36.705231 139.608719,39.302631 144.879761,45.771858 
	C139.982880,43.574032 135.002319,41.041939 130.024063,38.505318 
	C125.500610,36.200443 122.008080,37.134289 119.369431,41.930614 
z"/>
<path fill="#8AB1C2" opacity="1.000000" stroke="none" 
	d="
M218.502518,204.487305 
	C221.331619,200.720490 224.421127,197.114059 226.881165,193.119934 
	C228.131226,191.090317 228.247726,188.362549 229.275238,185.889633 
	C230.391617,186.533661 231.109421,187.238434 231.827225,187.943192 
	C230.461090,190.879242 229.412460,194.025696 227.643509,196.694794 
	C225.701279,199.625381 223.095383,202.116135 220.049393,204.782852 
	C219.047577,204.673874 218.775055,204.580582 218.502518,204.487305 
z"/>
<path fill="#A4C4D1" opacity="1.000000" stroke="none" 
	d="
M91.995514,167.667999 
	C91.512390,167.944183 91.206474,167.930695 90.670853,167.937164 
	C90.426964,165.591705 90.412437,163.234344 90.758636,160.237946 
	C91.429909,159.004639 91.740448,158.410385 92.050980,157.816116 
	C93.133064,157.265488 94.215157,156.714874 95.623444,156.002197 
	C95.784599,159.638626 95.619553,163.437103 95.297226,167.610229 
	C94.150986,167.779999 93.162025,167.575119 91.995514,167.667999 
z"/>
<path fill="#4F8DA6" opacity="1.000000" stroke="none" 
	d="
M159.370300,154.103439 
	C160.754272,154.309448 163.394043,153.821320 164.089966,154.765686 
	C165.334488,156.454468 165.889236,159.018005 165.838165,161.194885 
	C165.784149,163.495956 164.686523,165.772522 163.752426,168.463684 
	C163.018234,168.893738 162.576401,168.919922 162.134552,168.946091 
	C162.654129,166.136490 163.002365,163.281265 163.735291,160.528473 
	C164.722153,156.821899 163.289551,154.851395 159.370300,154.103439 
z"/>
<path fill="#79A8BB" opacity="1.000000" stroke="none" 
	d="
M162.162338,169.295380 
	C162.576401,168.919922 163.018234,168.893738 163.792358,168.863861 
	C168.788498,173.332123 173.452362,177.804108 178.214539,182.609512 
	C177.240799,182.502258 175.949402,182.307571 175.133301,181.579849 
	C170.753632,177.674652 166.492310,173.636749 162.162338,169.295380 
z"/>
<path fill="#79A8BB" opacity="1.000000" stroke="none" 
	d="
M120.261368,189.601364 
	C121.647972,188.969955 123.034576,188.338547 124.762894,187.896454 
	C121.578796,195.515793 119.097038,195.846664 113.286896,189.120285 
	C113.594299,188.211380 113.836823,187.852219 114.079346,187.493042 
	C114.783890,188.088684 115.488434,188.684326 116.660995,189.653503 
	C118.173126,189.885147 119.217247,189.743256 120.261368,189.601364 
z"/>
<path fill="#B5CED9" opacity="1.000000" stroke="none" 
	d="
M138.016037,26.934769 
	C138.022491,26.546009 138.028931,26.157253 138.032669,25.476875 
	C143.678375,28.621655 149.326797,32.058052 154.518463,36.039436 
	C153.811508,36.742764 153.561325,36.901108 153.311142,37.059448 
	C152.645142,36.536610 151.979126,36.013771 150.920883,35.010277 
	C147.344467,32.701427 144.160309,30.873240 140.976135,29.045052 
	C140.692398,28.809996 140.408676,28.574940 139.703094,28.042364 
	C138.859512,27.474819 138.437775,27.204794 138.016037,26.934769 
z"/>
<path fill="#94B9C8" opacity="1.000000" stroke="none" 
	d="
M142.066696,163.214233 
	C146.711060,164.048340 149.338928,160.800278 152.649261,158.301132 
	C153.597153,163.110611 148.702713,163.420715 146.316833,165.750839 
	C145.933701,166.125031 143.480255,164.379410 142.066696,163.214233 
z"/>
<path fill="#B5CED9" opacity="1.000000" stroke="none" 
	d="
M218.340683,204.551682 
	C218.775055,204.580582 219.047577,204.673874 219.730728,204.901810 
	C217.645111,207.621994 215.383926,210.528305 212.527008,212.621597 
	C211.506775,213.369186 209.044525,212.148727 207.069275,211.494232 
	C209.801575,209.971161 212.705063,208.780426 216.040619,207.128174 
	C216.949219,206.053680 217.425751,205.440735 217.902283,204.827789 
	C217.902283,204.827789 218.178848,204.616058 218.340683,204.551682 
z"/>
<path fill="#B5CED9" opacity="1.000000" stroke="none" 
	d="
M219.929749,174.495667 
	C219.482544,174.997925 218.571686,175.544388 218.375137,175.353867 
	C215.386307,172.457001 212.490967,169.463715 209.826843,166.193420 
	C213.319397,168.661606 216.558884,171.429337 219.929749,174.495667 
z"/>
<path fill="#5F97AE" opacity="1.000000" stroke="none" 
	d="
M178.375824,126.914696 
	C179.002350,122.807076 179.963989,118.526237 181.229279,114.421890 
	C181.360001,115.789635 181.187073,116.980896 181.014160,118.172150 
	C180.246414,121.028587 179.478683,123.885033 178.375824,126.914696 
z"/>
<path fill="#A4C4D1" opacity="1.000000" stroke="none" 
	d="
M181.415482,118.090584 
	C181.187073,116.980896 181.360001,115.789635 181.512939,114.241119 
	C181.580750,112.846764 181.668549,111.809662 182.009857,110.085464 
	C182.680984,108.243492 183.098618,107.088631 183.516251,105.933762 
	C183.812363,105.874084 184.111359,105.849014 184.638397,105.838837 
	C183.847946,109.882416 182.832382,113.945717 181.415482,118.090584 
z"/>
<path fill="#79A8BB" opacity="1.000000" stroke="none" 
	d="
M125.407684,187.951981 
	C126.459488,185.820801 127.819862,183.552597 129.505432,181.192749 
	C128.459183,183.339050 127.087730,185.576996 125.407684,187.951981 
z"/>
<path fill="#4F8DA6" opacity="1.000000" stroke="none" 
	d="
M113.941177,187.225464 
	C113.836823,187.852219 113.594299,188.211380 113.133507,188.809891 
	C111.470177,187.752167 110.025124,186.455093 108.293282,185.004639 
	C108.057083,184.406235 108.107681,183.961197 108.196243,183.182083 
	C110.090485,184.217957 111.946747,185.587906 113.941177,187.225464 
z"/>
<path fill="#72A3B8" opacity="1.000000" stroke="none" 
	d="
M98.533546,106.871704 
	C100.262650,104.840683 102.323456,102.864838 104.744545,100.971863 
	C103.024971,103.012115 100.945114,104.969505 98.533546,106.871704 
z"/>
<path fill="#94B9C8" opacity="1.000000" stroke="none" 
	d="
M91.911987,157.506195 
	C91.740448,158.410385 91.429909,159.004639 90.909363,159.861664 
	C89.047775,158.261810 87.396194,156.399200 85.908997,154.209854 
	C87.973251,154.987488 89.873123,156.091888 91.911987,157.506195 
z"/>
<path fill="#4F8DA6" opacity="1.000000" stroke="none" 
	d="
M70.437508,33.059814 
	C70.069969,32.625118 70.068642,32.202301 70.040207,31.463636 
	C71.119156,30.491364 72.225227,29.834940 73.642349,29.050602 
	C74.484245,29.085739 75.015076,29.248789 75.774460,29.570381 
	C74.269913,30.843182 72.536819,31.957438 70.437508,33.059814 
z"/>
<path fill="#72A3B8" opacity="1.000000" stroke="none" 
	d="
M106.384033,100.069824 
	C108.249619,98.358315 110.472160,96.599228 113.093338,94.892075 
	C111.241646,96.636749 108.991318,98.329491 106.384033,100.069824 
z"/>
<path fill="#5F97AE" opacity="1.000000" stroke="none" 
	d="
M175.369781,132.953400 
	C175.855865,131.145264 176.656113,129.161514 177.774338,127.090622 
	C177.289520,128.928253 176.486740,130.853012 175.369781,132.953400 
z"/>
<path fill="#B5CED9" opacity="1.000000" stroke="none" 
	d="
M221.964890,179.023636 
	C221.087891,177.711151 220.210892,176.398666 219.781403,175.026810 
	C221.773300,176.064850 223.317673,177.162262 224.958740,178.602142 
	C225.055450,178.944626 224.978348,179.021042 224.602890,179.063141 
	C223.473251,179.078049 222.719070,179.050842 221.964890,179.023636 
z"/>
<path fill="#B5CED9" opacity="1.000000" stroke="none" 
	d="
M229.290039,183.787262 
	C228.185364,183.591202 226.835373,183.129822 225.232681,181.972641 
	C224.979416,180.524918 224.978882,179.772980 224.978348,179.021042 
	C224.978348,179.021042 225.055450,178.944626 225.093994,178.906418 
	C226.436615,180.419449 227.740677,181.970688 229.290039,183.787262 
z"/>
<path fill="#94B9C8" opacity="1.000000" stroke="none" 
	d="
M81.938568,152.728027 
	C80.564644,151.944336 79.031090,150.878937 77.399612,149.508774 
	C78.794106,150.284775 80.286514,151.365555 81.938568,152.728027 
z"/>
<path fill="#4F8DA6" opacity="1.000000" stroke="none" 
	d="
M153.302475,37.301422 
	C153.561325,36.901108 153.811508,36.742764 154.464874,36.400978 
	C155.842865,37.262463 156.817688,38.307388 157.910248,39.636063 
	C156.449951,39.127674 154.871872,38.335537 153.302475,37.301422 
z"/>
<path fill="#94B9C8" opacity="1.000000" stroke="none" 
	d="
M85.853775,153.551544 
	C84.745209,153.755325 83.440689,153.647873 82.062271,153.223511 
	C83.211510,153.017822 84.434669,153.129059 85.853775,153.551544 
z"/>
<path fill="#72A3B8" opacity="1.000000" stroke="none" 
	d="
M113.908966,94.928421 
	C114.174385,94.070763 114.812950,93.199371 115.757324,92.196129 
	C115.469467,93.014412 114.875793,93.964546 113.908966,94.928421 
z"/>
<path fill="#4F8DA6" opacity="1.000000" stroke="none" 
	d="
M117.207214,91.865150 
	C117.462769,91.038307 118.058952,90.195145 118.975357,89.285919 
	C118.712997,90.096184 118.130424,90.972511 117.207214,91.865150 
z"/>
<path fill="#81ACC1" opacity="1.000000" stroke="none" 
	d="
M159.734116,133.064819 
	C159.499557,133.778351 158.992691,134.649048 158.247620,135.706573 
	C158.493515,135.002914 158.977661,134.112442 159.734116,133.064819 
z"/>
<path fill="#B5CED9" opacity="1.000000" stroke="none" 
	d="
M231.772583,187.604736 
	C231.109421,187.238434 230.391617,186.533661 229.430725,185.508698 
	C229.219940,184.969940 229.252243,184.751373 229.613617,184.493729 
	C230.534424,185.391876 231.126175,186.329086 231.772583,187.604736 
z"/>
<path fill="#B5CED9" opacity="1.000000" stroke="none" 
	d="
M204.919525,209.318481 
	C205.310318,209.031525 205.831223,209.014755 206.742279,208.970154 
	C207.286438,209.502655 207.440460,210.062988 207.215515,210.861938 
	C206.240936,210.596603 205.645294,210.092636 204.919525,209.318481 
z"/>
<path fill="#A4C4D1" opacity="1.000000" stroke="none" 
	d="
M90.320877,171.846283 
	C90.472130,171.296539 90.920250,170.771637 91.604568,170.128021 
	C91.433090,170.629913 91.025421,171.250534 90.320877,171.846283 
z"/>
<path fill="#5F97AE" opacity="1.000000" stroke="none" 
	d="
M118.342941,42.955391 
	C117.884926,43.024147 117.664604,43.009903 117.111992,42.977627 
	C117.335159,42.649548 117.890610,42.339500 118.767334,42.029228 
	C118.919281,42.310135 118.749962,42.591263 118.342941,42.955391 
z"/>
<path fill="#B5CED9" opacity="1.000000" stroke="none" 
	d="
M209.956985,165.652817 
	C209.461136,165.817566 208.805359,165.702820 208.055893,165.209015 
	C208.573822,165.011078 209.185440,165.192200 209.956985,165.652817 
z"/>
<path fill="#72A3B8" opacity="1.000000" stroke="none" 
	d="
M105.271164,101.031860 
	C105.191132,100.803520 105.380981,100.485352 105.844604,100.082581 
	C105.925941,100.312668 105.733498,100.627350 105.271164,101.031860 
z"/>
<path fill="#4F8DA6" opacity="1.000000" stroke="none" 
	d="
M158.336090,154.800232 
	C158.324982,154.648804 158.556168,154.471909 158.924622,154.124603 
	C159.022522,154.299484 158.861343,154.572998 158.336090,154.800232 
z"/>
<path fill="#4F8DA6" opacity="1.000000" stroke="none" 
	d="
M141.089981,29.365179 
	C144.160309,30.873240 147.344467,32.701427 150.652283,34.840324 
	C147.585220,33.329128 144.394516,31.507217 141.089981,29.365179 
z"/>
<path fill="#4F8DA6" opacity="1.000000" stroke="none" 
	d="
M83.885574,26.369305 
	C86.750267,25.229744 90.017273,24.143730 93.681496,23.108269 
	C90.815102,24.246832 87.551506,25.334841 83.885574,26.369305 
z"/>
<path fill="#4F8DA6" opacity="1.000000" stroke="none" 
	d="
M108.076981,21.743664 
	C110.644165,21.580538 113.472130,21.654066 116.637497,21.955631 
	C114.095856,22.115883 111.216812,22.048100 108.076981,21.743664 
z"/>
<path fill="#4F8DA6" opacity="1.000000" stroke="none" 
	d="
M120.954590,22.890686 
	C122.671028,22.904409 124.573296,23.168457 126.742271,23.675869 
	C125.052795,23.659824 123.096611,23.400417 120.954590,22.890686 
z"/>
<path fill="#5F97AE" opacity="1.000000" stroke="none" 
	d="
M183.395111,105.666901 
	C183.098618,107.088631 182.680984,108.243492 182.052017,109.698761 
	C182.012665,108.421783 182.184647,106.844406 182.627411,105.108627 
	C183.023438,105.100166 183.148712,105.250099 183.395111,105.666901 
z"/>
<path fill="#8AB1C2" opacity="1.000000" stroke="none" 
	d="
M224.602890,179.063141 
	C224.978882,179.772980 224.979416,180.524918 224.978882,181.654633 
	C224.039658,181.229721 223.101486,180.427017 222.064117,179.323975 
	C222.719070,179.050842 223.473251,179.078049 224.602890,179.063141 
z"/>
<path fill="#5F97AE" opacity="1.000000" stroke="none" 
	d="
M181.898651,87.197296 
	C182.288193,87.858116 182.510208,88.723198 182.583527,89.904549 
	C182.200272,89.281059 181.965698,88.341301 181.898651,87.197296 
z"/>
<path fill="#4F8DA6" opacity="1.000000" stroke="none" 
	d="
M137.672119,26.950699 
	C138.437775,27.204794 138.859512,27.474819 139.448929,27.930996 
	C138.534042,27.955818 137.451477,27.794493 136.164246,27.357204 
	C136.415787,27.043041 136.871994,27.004835 137.672119,26.950699 
z"/>
<path fill="#4F8DA6" opacity="1.000000" stroke="none" 
	d="
M77.809723,29.395267 
	C78.156265,28.957693 78.813683,28.548258 79.766640,28.119211 
	C79.414986,28.540871 78.767784,28.982140 77.809723,29.395267 
z"/>
<path fill="#4F8DA6" opacity="1.000000" stroke="none" 
	d="
M129.020462,24.676884 
	C129.575485,24.620764 130.333572,24.788078 131.296799,25.174351 
	C130.742477,25.228977 129.982986,25.064650 129.020462,24.676884 
z"/>
<path fill="#8AB1C2" opacity="1.000000" stroke="none" 
	d="
M217.596283,204.903091 
	C217.425751,205.440735 216.949219,206.053680 216.220825,206.825729 
	C216.409409,206.316010 216.849854,205.647202 217.596283,204.903091 
z"/>
<path fill="#4F8DA6" opacity="1.000000" stroke="none" 
	d="
M119.822144,189.547485 
	C119.217247,189.743256 118.173126,189.885147 116.938629,189.860046 
	C117.626472,189.626572 118.504692,189.560089 119.822144,189.547485 
z"/>
</svg>